<svg width="15" height="15" viewBox="0 0 15 15" fill="none" xmlns="http://www.w3.org/2000/svg">
<path d="M13.659 9.01598C13.8905 8.83684 14.0778 8.60706 14.2068 8.34428C14.3357 8.0815 14.4027 7.79269 14.4027 7.49999C14.4027 7.20728 14.3357 6.91847 14.2068 6.65569C14.0778 6.39291 13.8905 6.16313 13.659 5.98399C10.6612 3.66515 7.31418 1.83706 3.743 0.567985L3.09 0.335985C1.842 -0.107015 0.523 0.736985 0.354 2.02599C-0.118 5.66006 -0.118 9.33991 0.354 12.974C0.524 14.263 1.842 15.107 3.09 14.664L3.743 14.432C7.31418 13.1629 10.6612 11.3348 13.659 9.01598Z" fill="white"/>
</svg>
