<svg width="13" height="22" viewBox="0 0 13 22" fill="none" xmlns="http://www.w3.org/2000/svg">
<g clip-path="url(#clip0_31_54)">
<path fill-rule="evenodd" clip-rule="evenodd" d="M6.11714 4.49203C6.21872 4.39048 6.35647 4.33344 6.5001 4.33344C6.64373 4.33344 6.78148 4.39048 6.88306 4.49203L9.94726 7.55624C10.0459 7.6584 10.1005 7.79522 10.0993 7.93725C10.0981 8.07927 10.0411 8.21513 9.94067 8.31555C9.84024 8.41598 9.70438 8.47295 9.56236 8.47418C9.42033 8.47542 9.28351 8.42082 9.18135 8.32215L6.5001 5.6409L3.81885 8.32215C3.71669 8.42082 3.57986 8.47542 3.43784 8.47418C3.29582 8.47295 3.15996 8.41598 3.05953 8.31555C2.9591 8.21513 2.90213 8.07927 2.9009 7.93725C2.89967 7.79522 2.95426 7.6584 3.05293 7.55624L6.11714 4.49203Z" fill="black"/>
</g>
<g clip-path="url(#clip1_31_54)">
<path fill-rule="evenodd" clip-rule="evenodd" d="M6.88318 17.5079C6.78161 17.6095 6.64386 17.6665 6.50023 17.6665C6.3566 17.6665 6.21885 17.6095 6.11727 17.5079L3.05306 14.4437C3.00133 14.3938 2.96006 14.334 2.93167 14.2679C2.90328 14.2018 2.88834 14.1307 2.88772 14.0588C2.88709 13.9869 2.9008 13.9156 2.92803 13.849C2.95527 13.7824 2.99549 13.722 3.04635 13.6711C3.0972 13.6202 3.15768 13.58 3.22425 13.5528C3.29082 13.5256 3.36215 13.5118 3.43407 13.5125C3.50599 13.5131 3.57707 13.528 3.64315 13.5564C3.70924 13.5848 3.76901 13.6261 3.81898 13.6778L6.50023 16.3591L9.18148 13.6778C9.28364 13.5791 9.42046 13.5245 9.56249 13.5258C9.70451 13.527 9.84037 13.584 9.94079 13.6844C10.0412 13.7848 10.0982 13.9207 10.0994 14.0627C10.1007 14.2047 10.0461 14.3416 9.94739 14.4437L6.88318 17.5079Z" fill="black"/>
</g>
<defs>
<clipPath id="clip0_31_54">
<rect width="13" height="13" fill="white"/>
</clipPath>
<clipPath id="clip1_31_54">
<rect width="13" height="13" fill="white" transform="translate(0 9)"/>
</clipPath>
</defs>
</svg>
